M48
;DRILL file {KiCad (5.0.0)} date 04/20/20 12:58:52
;FORMAT={2:4/ absolute / inch / suppress trailing zeros}
FMAT,2
INCH,LZ
T1C0.0200
T2C0.0280
T3C0.0350
T4C0.0433
T5C0.0472
T6C0.1250
%
G90
G05
M72
T1
X02216Y-03113
X02223Y-04198
X02379Y-04301
X02424Y-02897
X026215Y-031515
X02717Y-03439
X02724Y-03537
X02814Y-03273
X02818Y-03214
X02889Y-04089
X03008Y-03961
X0301Y-03786
X03011Y-03616
X03013Y-03468
X03125Y-0397
X032Y-02931
X032Y-03033
X03211Y-03859
X03216Y-03391
X03237Y-04466
X03255Y-04042
X03299Y-03701
X03338Y-04042
X0334Y-04497
X03474Y-04393
X03592Y-03918
X03592Y-04261
X03745Y-03206
X03814Y-03011
X03825Y-03206
X03836Y-03074
X03932Y-03121
X03992Y-02997
X04095Y-03273
X0413Y-03445
X0413Y-03663
X04162Y-04075
X04162Y-04222
X04174Y-0375
X04181Y-03
X0419Y-03917
X04193Y-03237
X04344Y-02998
X04449Y-03262
X0455Y-03282
X04595Y-02961
X04595Y-0304
X04681Y-03635
X04693Y-03899
X04775Y-03833
X04839Y-0291
X05033Y-03929
X05033Y-04307
X05127Y-04307
X05129Y-03415
X05133Y-03045
X05133Y-03963
X0519Y-03746
X05378Y-03138
X05378Y-04231
X05414Y-03686
T2
X026915Y-03918
X032115Y-04295
T3
X03655Y-02935
X03655Y-03035
X03655Y-03135
X03655Y-03235
X03655Y-03435
X03655Y-03535
X03655Y-03635
T4
X024765Y-038488
X024765Y-039669
X024765Y-04085
X05264Y-03908
X05264Y-040261
X05264Y-03344
X05264Y-034621
T5
X026865Y-043065
X027865Y-042829
X028865Y-043065
X029865Y-042829
X030865Y-043065
X04353Y-040858
X04453Y-040622
X04553Y-040858
X04653Y-040622
X04753Y-040858
T6
X0225Y-0294
X0549Y-0294
X0225Y-0443
X0549Y-0443
T0
M30
