G04 #@! TF.GenerationSoftware,KiCad,Pcbnew,(5.0.0)*
G04 #@! TF.CreationDate,2020-04-20T12:53:27-07:00*
G04 #@! TF.ProjectId,PowerShuffler2,506F77657253687566666C6572322E6B,rev?*
G04 #@! TF.SameCoordinates,Original*
G04 #@! TF.FileFunction,Soldermask,Top*
G04 #@! TF.FilePolarity,Negative*
%FSLAX46Y46*%
G04 Gerber Fmt 4.6, Leading zero omitted, Abs format (unit mm)*
G04 Created by KiCad (PCBNEW (5.0.0)) date 04/20/20 12:53:27*
%MOMM*%
%LPD*%
G01*
G04 APERTURE LIST*
%ADD10R,1.400000X2.000000*%
%ADD11R,0.700000X1.400000*%
%ADD12R,2.430000X3.050000*%
%ADD13R,1.300000X2.100000*%
%ADD14R,2.457400X2.787600*%
%ADD15R,1.924000X1.924000*%
%ADD16C,1.924000*%
%ADD17C,3.500000*%
%ADD18C,1.900000*%
%ADD19R,1.900000X1.900000*%
%ADD20R,1.900000X2.000000*%
%ADD21R,2.100000X1.300000*%
%ADD22R,1.900000X0.700000*%
%ADD23R,0.800000X1.900000*%
%ADD24R,2.400000X3.000000*%
%ADD25O,2.400000X3.000000*%
%ADD26R,1.800000X0.680000*%
%ADD27R,2.787600X2.457400*%
%ADD28R,2.000000X1.400000*%
%ADD29R,1.050000X1.960000*%
%ADD30C,6.316000*%
%ADD31R,2.000000X1.900000*%
%ADD32R,2.700000X5.500000*%
%ADD33R,2.600000X5.500000*%
%ADD34R,3.050000X2.430000*%
%ADD35R,1.960000X1.050000*%
%ADD36C,1.466800*%
%ADD37C,1.619200*%
G04 APERTURE END LIST*
D10*
G04 #@! TO.C,C29*
X99885801Y-77444600D03*
X102885801Y-77444600D03*
G04 #@! TD*
G04 #@! TO.C,C30*
X102885801Y-74853800D03*
X99885801Y-74853800D03*
G04 #@! TD*
D11*
G04 #@! TO.C,U11*
X124778200Y-95399800D03*
X124278200Y-95399800D03*
X123778200Y-95399800D03*
X123278200Y-95399800D03*
X123278200Y-91899800D03*
X123778200Y-91899800D03*
X124278200Y-91899800D03*
X124778200Y-91899800D03*
G04 #@! TD*
D10*
G04 #@! TO.C,C22*
X89739600Y-110286800D03*
X86739600Y-110286800D03*
G04 #@! TD*
D12*
G04 #@! TO.C,F3*
X133731000Y-112453000D03*
X133731000Y-108273000D03*
G04 #@! TD*
D13*
G04 #@! TO.C,R11*
X86789600Y-112928400D03*
X89689600Y-112928400D03*
G04 #@! TD*
D14*
G04 #@! TO.C,C28*
X119913400Y-76225400D03*
X113461800Y-76225400D03*
G04 #@! TD*
D10*
G04 #@! TO.C,C26*
X69826000Y-75184000D03*
X66826000Y-75184000D03*
G04 #@! TD*
D15*
G04 #@! TO.C,U4*
X92837000Y-92329000D03*
D16*
X92837000Y-89789000D03*
X92837000Y-87249000D03*
X92837000Y-82169000D03*
X92837000Y-79629000D03*
X92837000Y-77089000D03*
X92837000Y-74549000D03*
G04 #@! TD*
D17*
G04 #@! TO.C,J5*
X138025600Y-100763200D03*
D18*
X133705600Y-102263200D03*
D19*
X133705600Y-99263200D03*
G04 #@! TD*
D20*
G04 #@! TO.C,S3*
X113049568Y-86053890D03*
X115589568Y-86053890D03*
X115589568Y-79957890D03*
X113049568Y-79957890D03*
G04 #@! TD*
G04 #@! TO.C,S4*
X127838200Y-97663000D03*
X130378200Y-97663000D03*
X130378200Y-103759000D03*
X127838200Y-103759000D03*
G04 #@! TD*
G04 #@! TO.C,S5*
X127838200Y-80746600D03*
X130378200Y-80746600D03*
X130378200Y-74650600D03*
X127838200Y-74650600D03*
G04 #@! TD*
G04 #@! TO.C,S7*
X130378200Y-89585800D03*
X127838200Y-89585800D03*
X127838200Y-83489800D03*
X130378200Y-83489800D03*
G04 #@! TD*
G04 #@! TO.C,S6*
X130378200Y-106349800D03*
X127838200Y-106349800D03*
X127838200Y-112445800D03*
X130378200Y-112445800D03*
G04 #@! TD*
D21*
G04 #@! TO.C,R25*
X123952000Y-104544200D03*
X123952000Y-107444200D03*
G04 #@! TD*
G04 #@! TO.C,R24*
X115468400Y-93829800D03*
X115468400Y-90929800D03*
G04 #@! TD*
D22*
G04 #@! TO.C,U6*
X104020000Y-79615600D03*
X104020000Y-80115600D03*
X104020000Y-80615600D03*
X104020000Y-81115600D03*
X101720000Y-81115600D03*
X101720000Y-80615600D03*
X101720000Y-80115600D03*
X101720000Y-79615600D03*
G04 #@! TD*
D23*
G04 #@! TO.C,U9*
X120203200Y-94979800D03*
X120853200Y-94979800D03*
X121503200Y-94979800D03*
X121503200Y-92319800D03*
X120203200Y-92319800D03*
G04 #@! TD*
G04 #@! TO.C,U10*
X120838200Y-86935000D03*
X122138200Y-86935000D03*
X122138200Y-89595000D03*
X121488200Y-89595000D03*
X120838200Y-89595000D03*
G04 #@! TD*
D24*
G04 #@! TO.C,J2*
X68237100Y-109385100D03*
D25*
X70777100Y-108785100D03*
X73317100Y-109385100D03*
X75857100Y-108785100D03*
X78397100Y-109385100D03*
G04 #@! TD*
D24*
G04 #@! TO.C,J4*
X110566200Y-103779600D03*
D25*
X113106200Y-103179600D03*
X115646200Y-103779600D03*
X118186200Y-103179600D03*
X120726200Y-103779600D03*
G04 #@! TD*
D26*
G04 #@! TO.C,U2*
X73679100Y-81363500D03*
X73679100Y-81863500D03*
X73679100Y-82363500D03*
X73679100Y-82863500D03*
X73679100Y-83363500D03*
X69399100Y-83363500D03*
X69399100Y-82863500D03*
X69399100Y-82363500D03*
X69399100Y-81863500D03*
X69399100Y-81363500D03*
G04 #@! TD*
D20*
G04 #@! TO.C,S1*
X88696800Y-96393000D03*
X91236800Y-96393000D03*
X91236800Y-102489000D03*
X88696800Y-102489000D03*
G04 #@! TD*
D19*
G04 #@! TO.C,D3*
X115569000Y-88696800D03*
X112269000Y-88696800D03*
G04 #@! TD*
G04 #@! TO.C,D1*
X73671700Y-112928400D03*
X70371700Y-112928400D03*
G04 #@! TD*
D27*
G04 #@! TO.C,C27*
X83776932Y-106350060D03*
X83776932Y-99898460D03*
G04 #@! TD*
D28*
G04 #@! TO.C,C25*
X81419700Y-81852900D03*
X81419700Y-78852900D03*
G04 #@! TD*
D19*
G04 #@! TO.C,J3*
X133705600Y-84937600D03*
D18*
X133705600Y-87937600D03*
D17*
X138025600Y-86437600D03*
G04 #@! TD*
D19*
G04 #@! TO.C,J1*
X62903100Y-103759000D03*
D18*
X62903100Y-100759000D03*
X62903100Y-97759000D03*
D17*
X58583100Y-100759000D03*
G04 #@! TD*
D29*
G04 #@! TO.C,U1*
X72946300Y-96160600D03*
X71996300Y-96160600D03*
X71046300Y-96160600D03*
X71046300Y-98860600D03*
X72946300Y-98860600D03*
G04 #@! TD*
G04 #@! TO.C,U8*
X116067800Y-109698800D03*
X117967800Y-109698800D03*
X117967800Y-112398800D03*
X117017800Y-112398800D03*
X116067800Y-112398800D03*
G04 #@! TD*
D30*
G04 #@! TO.C,MNT1*
X57150000Y-74676000D03*
G04 #@! TD*
G04 #@! TO.C,MNT2*
X139446000Y-74676000D03*
G04 #@! TD*
G04 #@! TO.C,MNT3*
X57150000Y-112522000D03*
G04 #@! TD*
G04 #@! TO.C,MNT4*
X139446000Y-112522000D03*
G04 #@! TD*
D31*
G04 #@! TO.C,S2*
X92793200Y-112928400D03*
X92793200Y-110388400D03*
X103193200Y-110388400D03*
X103193200Y-112928400D03*
G04 #@! TD*
D32*
G04 #@! TO.C,L1*
X73675900Y-77000100D03*
D33*
X78275900Y-77000100D03*
G04 #@! TD*
D10*
G04 #@! TO.C,C11*
X73902700Y-90919300D03*
X70902700Y-90919300D03*
G04 #@! TD*
G04 #@! TO.C,C24*
X114555400Y-107238800D03*
X111555400Y-107238800D03*
G04 #@! TD*
D28*
G04 #@! TO.C,C23*
X122910600Y-79678400D03*
X122910600Y-82678400D03*
G04 #@! TD*
D10*
G04 #@! TO.C,C21*
X121563000Y-109982000D03*
X124563000Y-109982000D03*
G04 #@! TD*
D28*
G04 #@! TO.C,C18*
X108559600Y-99493200D03*
X108559600Y-96493200D03*
G04 #@! TD*
G04 #@! TO.C,C20*
X106959400Y-88952200D03*
X106959400Y-85952200D03*
G04 #@! TD*
G04 #@! TO.C,C19*
X111175800Y-99493200D03*
X111175800Y-96493200D03*
G04 #@! TD*
G04 #@! TO.C,C17*
X110337600Y-74725400D03*
X110337600Y-77725400D03*
G04 #@! TD*
G04 #@! TO.C,C16*
X113588800Y-109595481D03*
X113588800Y-112595481D03*
G04 #@! TD*
G04 #@! TO.C,C14*
X127101600Y-95149800D03*
X127101600Y-92149800D03*
G04 #@! TD*
G04 #@! TO.C,C13*
X129641600Y-95149800D03*
X129641600Y-92149800D03*
G04 #@! TD*
D10*
G04 #@! TO.C,C10*
X73902700Y-88201500D03*
X70902700Y-88201500D03*
G04 #@! TD*
G04 #@! TO.C,C9*
X78956950Y-93216393D03*
X81956950Y-93216393D03*
G04 #@! TD*
G04 #@! TO.C,C8*
X78956950Y-90701793D03*
X81956950Y-90701793D03*
G04 #@! TD*
D28*
G04 #@! TO.C,C7*
X79514700Y-105525700D03*
X79514700Y-102525700D03*
G04 #@! TD*
D10*
G04 #@! TO.C,C6*
X87344189Y-88187193D03*
X84344189Y-88187193D03*
G04 #@! TD*
G04 #@! TO.C,C5*
X87352000Y-90701793D03*
X84352000Y-90701793D03*
G04 #@! TD*
G04 #@! TO.C,C4*
X68362700Y-101993700D03*
X71362700Y-101993700D03*
G04 #@! TD*
G04 #@! TO.C,C1*
X66826000Y-77698600D03*
X69826000Y-77698600D03*
G04 #@! TD*
D28*
G04 #@! TO.C,C3*
X68440300Y-96140400D03*
X68440300Y-93140400D03*
G04 #@! TD*
G04 #@! TO.C,C15*
X111176419Y-109599600D03*
X111176419Y-112599600D03*
G04 #@! TD*
G04 #@! TO.C,C2*
X85852000Y-96394400D03*
X85852000Y-93394400D03*
G04 #@! TD*
D10*
G04 #@! TO.C,C12*
X73902700Y-93433900D03*
X70902700Y-93433900D03*
G04 #@! TD*
D34*
G04 #@! TO.C,F1*
X70479500Y-104952800D03*
X66299500Y-104952800D03*
G04 #@! TD*
D12*
G04 #@! TO.C,F2*
X133705600Y-78823400D03*
X133705600Y-74643400D03*
G04 #@! TD*
D21*
G04 #@! TO.C,R3*
X65902500Y-100967200D03*
X65902500Y-98067200D03*
G04 #@! TD*
G04 #@! TO.C,R20*
X119202200Y-97457600D03*
X119202200Y-100357600D03*
G04 #@! TD*
G04 #@! TO.C,R21*
X125145800Y-74648400D03*
X125145800Y-77548400D03*
G04 #@! TD*
D13*
G04 #@! TO.C,R22*
X119864800Y-107238800D03*
X116964800Y-107238800D03*
G04 #@! TD*
D21*
G04 #@! TO.C,R13*
X124434600Y-89359400D03*
X124434600Y-86459400D03*
G04 #@! TD*
G04 #@! TO.C,R23*
X123977400Y-98295800D03*
X123977400Y-101195800D03*
G04 #@! TD*
D13*
G04 #@! TO.C,R19*
X121562200Y-112420400D03*
X124462200Y-112420400D03*
G04 #@! TD*
D21*
G04 #@! TO.C,R18*
X118027968Y-85797690D03*
X118027968Y-88697690D03*
G04 #@! TD*
G04 #@! TO.C,R17*
X109474000Y-88953000D03*
X109474000Y-86053000D03*
G04 #@! TD*
D13*
G04 #@! TO.C,R16*
X107647400Y-77444600D03*
X104747400Y-77444600D03*
G04 #@! TD*
G04 #@! TO.C,R15*
X107647400Y-74879200D03*
X104747400Y-74879200D03*
G04 #@! TD*
D21*
G04 #@! TO.C,R14*
X108661200Y-109598800D03*
X108661200Y-112498800D03*
G04 #@! TD*
G04 #@! TO.C,R4*
X65900300Y-96141200D03*
X65900300Y-93241200D03*
G04 #@! TD*
G04 #@! TO.C,R5*
X66573400Y-88559300D03*
X66573400Y-85659300D03*
G04 #@! TD*
G04 #@! TO.C,R6*
X75476100Y-105526500D03*
X75476100Y-102626500D03*
G04 #@! TD*
G04 #@! TO.C,R7*
X88696800Y-105128400D03*
X88696800Y-108028400D03*
G04 #@! TD*
G04 #@! TO.C,R12*
X110382568Y-82855690D03*
X110382568Y-79955690D03*
G04 #@! TD*
D13*
G04 #@! TO.C,R9*
X71003500Y-85509100D03*
X73903500Y-85509100D03*
G04 #@! TD*
D21*
G04 #@! TO.C,R10*
X77736700Y-83386000D03*
X77736700Y-86286000D03*
G04 #@! TD*
G04 #@! TO.C,R1*
X61633100Y-82056900D03*
X61633100Y-79156900D03*
G04 #@! TD*
G04 #@! TO.C,R2*
X63601600Y-88559300D03*
X63601600Y-85659300D03*
G04 #@! TD*
D13*
G04 #@! TO.C,R8*
X76096200Y-112928400D03*
X78996200Y-112928400D03*
G04 #@! TD*
D29*
G04 #@! TO.C,U5*
X118005068Y-82679490D03*
X118955068Y-82679490D03*
X119905068Y-82679490D03*
X119905068Y-79979490D03*
X118005068Y-79979490D03*
G04 #@! TD*
G04 #@! TO.C,U3*
X78008350Y-98858993D03*
X78958350Y-98858993D03*
X79908350Y-98858993D03*
X79908350Y-96158993D03*
X78008350Y-96158993D03*
X78958350Y-96158993D03*
G04 #@! TD*
D35*
G04 #@! TO.C,U7*
X116640600Y-100416400D03*
X116640600Y-99466400D03*
X116640600Y-98516400D03*
X113940600Y-98516400D03*
X113940600Y-100416400D03*
X113940600Y-99466400D03*
G04 #@! TD*
D36*
X69011800Y-87350600D03*
X81280000Y-77038200D03*
X76479400Y-91846400D03*
X81280000Y-74447400D03*
X116713000Y-75209400D03*
X116713000Y-77216000D03*
X130378200Y-77343000D03*
X104902000Y-87503000D03*
X113004600Y-82854800D03*
X119202200Y-99034600D03*
X121285000Y-97358200D03*
X104902000Y-93040200D03*
X105714800Y-107238800D03*
X105714800Y-103505000D03*
X130378200Y-100660200D03*
X127838200Y-109397800D03*
X130276600Y-86741000D03*
X97155000Y-81432400D03*
X97434400Y-78079600D03*
X96875600Y-76479400D03*
X95123000Y-81432400D03*
X101396800Y-76123800D03*
X106197400Y-76200000D03*
X136601200Y-79705200D03*
X136601200Y-107467400D03*
X137515600Y-93624400D03*
X106019600Y-95250000D03*
X130225800Y-109397800D03*
X131826000Y-95148400D03*
X110337600Y-76149200D03*
X99872800Y-79273400D03*
X104013000Y-83134200D03*
X106502200Y-82219800D03*
X106426000Y-99491800D03*
X118897400Y-92329000D03*
X115570000Y-83362800D03*
X84836000Y-114223800D03*
X81559400Y-98018600D03*
X91236800Y-99517200D03*
X76454000Y-96164400D03*
X66586100Y-80048100D03*
D37*
X68364100Y-99517200D03*
D36*
X76530200Y-88087200D03*
D37*
X81572100Y-109093000D03*
D36*
X122910600Y-73914000D03*
X127838200Y-99796600D03*
X71577200Y-81635600D03*
X71475600Y-83134200D03*
X69189600Y-89839800D03*
X56286400Y-79070200D03*
X61569600Y-73583800D03*
X56464200Y-106629200D03*
X60426600Y-109245400D03*
X73380600Y-103860600D03*
X79375000Y-100838000D03*
X82677000Y-102666800D03*
X84785200Y-102666800D03*
X83794600Y-94005400D03*
X91236800Y-108229400D03*
X81686400Y-86131400D03*
X88239600Y-111582200D03*
X76403200Y-100609400D03*
X82219800Y-113436400D03*
M02*
